<svg version="1.1" id="Group_1_copy_11" xmlns="http://www.w3.org/2000/svg" xmlns:xlink="http://www.w3.org/1999/xlink" x="0px"
	 y="0px" viewBox="0 0 286.3 286.3" style="enable-background:new 0 0 286.3 286.3;" xml:space="preserve">
<style type="text/css">
	.st0{fill:#D71921;}
</style>
<g>
	<path class="st0" d="M171.6,139.6l-35.9-23.7c-5.2-3.4-12,0.3-12,6.5v47.4c0,6.2,6.9,9.9,12,6.5l35.9-23.7
		C176.3,149.5,176.3,142.7,171.6,139.6z"/>
	<path class="st0" d="M282.5,126.4h-12.4h-32.4h-23C206,95,177.4,71.9,143.3,71.9S80.6,95,72.1,126.4H48.8c8-45,47.1-79.1,94.4-79.1
		c35.6,0,66.7,19.4,83.3,48.3h48.8c-19.5-54-71.3-92.6-132-92.6C65.6,2.8,2.8,65.7,2.8,143.2c0,7,0.5,13.9,1.5,20.6h11.9h33.2h22.3
		c8.1,32.1,37.1,56,71.6,56s63.6-23.9,71.6-56h21.9c-9.4,43.1-47.8,75.4-93.7,75.4c-34,0-63.9-17.7-81-44.5H12.6
		c20.5,52,71.2,88.9,130.6,88.9c77.5,0,140.3-62.8,140.3-140.3C283.5,137.5,283.1,131.9,282.5,126.4z M143.3,197.4
		c-28.4,0-51.6-23.1-51.6-51.6c0-28.4,23.1-51.6,51.6-51.6s51.6,23.1,51.6,51.6C194.9,174.2,171.8,197.4,143.3,197.4z"/>
</g>
</svg>
